<?xml version="1.0" encoding="utf-8"?>
<!-- Generator: Adobe Illustrator 24.0.2, SVG Export Plug-In . SVG Version: 6.00 Build 0)  -->
	<svg version="1.1" id="arrow" xmlns="http://www.w3.org/2000/svg" xmlns:xlink="http://www.w3.org/1999/xlink" x="0px" y="0px"
	viewBox="0 0 59.7 50.6" style="enable-background:new 0 0 59.7 50.6;" xml:space="preserve">
	<style type="text/css">
	.st0{fill:#BCE0F7;}
	</style>
	<path id="arrow_1_" class="st0" d="M47.9,8.4v11.3c0,5.1-4.2,9.3-9.3,9.3H12.1l9.2,8.5c0.6,0.6,0.6,1.5,0.1,2.1
	c-0.3,0.3-0.7,0.5-1.1,0.5c-0.4,0-0.7-0.1-1-0.4l-12-11.1l0,0c-0.1,0-0.1-0.1-0.2-0.2c-0.2-0.3-0.3-0.6-0.3-0.9
	c0-0.4,0.2-0.8,0.4-1.1c0,0,0,0,0,0l12.1-11.3c0.6-0.6,1.5-0.5,2.1,0.1c0.6,0.6,0.5,1.5-0.1,2.1L12.1,26h26.6c3.5,0,6.3-2.8,6.3-6.3
	V8.4c0-0.8,0.7-1.5,1.5-1.5S47.9,7.6,47.9,8.4z"/>
	</svg>
