<svg id="_4leaf_top" data-name="4leaf_top" xmlns="http://www.w3.org/2000/svg" viewBox="0 0 164.89 93.36">
  <defs>
    <style>
      .cls-1 {
        fill: #158978;
      }

      .cls-2 {
        fill: #14a88f;
      }

      .cls-3 {
        fill: #46e067;
      }
    </style>
  </defs>
  <title>l1</title>
  <path id="leaf_dark3" class="cls-1" d="M140.71,0A9.24,9.24,0,0,1,140.65,1v.46a25.86,25.86,0,0,1-15.46,20.91A27.45,27.45,0,0,1,114,24.74a27.72,27.72,0,0,1-8.62-1.38L37,1,33.78,0Z" transform="translate(0 0.51)"/>
  <path id="leaf_dark2" class="cls-2" d="M162.13,64.27a26.86,26.86,0,0,1-24.08,14.44,27.21,27.21,0,0,1-16.86-5.81l-21.62-17L29.79,1,28.45,0H44.63L48.4,1l76.75,21.37L145.52,28C161.53,32.49,169.48,49.84,162.13,64.27Z" transform="translate(0 0.51)"/>
  <path id="leaf_dark1" class="cls-1" d="M99.57,55.9a25.2,25.2,0,0,1-7,18,27.37,27.37,0,0,1-38.7.75,28.26,28.26,0,0,1-3.1-3.55l-4.93-6.91L42,58.81h0l-4.74-6.62L12.7,17.76h0L12,16.7,2.32,3.2.75,1,0,0H28.37l-.51-.46.59.46h2L32.17,1l55,33.65A25.58,25.58,0,0,1,99.57,55.9Z" transform="translate(0 0.51)"/>
  <path id="leaf_light" class="cls-3" d="M0,0H29.71L30.81,1C49.5,19.33,50.33,44.75,47.16,64.2a128.86,128.86,0,0,1-7,25.58.09.09,0,0,1,0,.07c-.75,1.94-1.24,3-1.24,3C20.77,80.54,8.86,68.41,1.32,57q-.69-1-1.32-2.07Z" transform="translate(0 0.51)"/>
  <polygon id="line" class="cls-1" points="46.05 56.69 23.91 46.47 38.93 91.77 37.99 92.09 13.46 18.1 4.64 39 3.72 38.62 12.98 16.67 7.66 0.62 8.6 0.3 23.49 45.17 46.47 55.79 46.05 56.69"/>
</svg>
