<svg id="light_top" data-name="light top" xmlns="http://www.w3.org/2000/svg" viewBox="0 0 347.37 459.56">
  <defs>
    <style>
      .cls-1 {
        fill: #158978;
      }

      .cls-2 {
        fill: #004c43;
      }

      .cls-3 {
        fill: #005e5e;
      }

      .cls-4 {
        fill: #51ce68;
      }

      .cls-5, .cls-7 {
        fill: #bce0f7;
        isolation: isolate;
      }

      .cls-5 {
        stroke: #bce0f7;
        stroke-miterlimit: 10;
        opacity: 0.54;
      }

      .cls-6 {
        fill: #46e067;
      }

      .cls-7 {
        opacity: 0.6;
      }

      .cls-8 {
        fill: #14a88f;
      }

      .cls-9 {
        fill: #3ec157;
      }
    </style>
  </defs>
  <title>l2</title>
  <path id="_3bottle_left" data-name=" 3bottle left" class="cls-1" d="M231.51,360.4,115,408.73a25.8,25.8,0,0,1-33.69-14A26.06,26.06,0,0,1,80,390.4h0a25.77,25.77,0,0,1,19.56-30.75,25.39,25.39,0,0,1,5.83-.62Z" transform="translate(-3.07 0.03)"/>
  <path id="dark2" class="cls-2" d="M124,445.63s175.43,21.94,183.34-123.46C307.33,322.17,184.28,267.18,124,445.63Z" transform="translate(-3.07 0.03)"/>
  <path id="dark1" class="cls-3" d="M3.07,278.57s113.81,175,256.55,75.9C259.63,354.53,217.05,202.87,3.07,278.57Z" transform="translate(-3.07 0.03)"/>
  <polygon id="line_on_dark1" data-name="line on dark1" class="cls-4" points="230.74 345.49 230.44 346.51 121.6 314.84 80.19 335.74 79.69 334.77 120.08 314.39 1.76 279.94 2.07 278.93 95.14 306.03 75.46 272.93 76.39 272.4 96.64 306.45 121.48 313.69 123 314.13 161.86 325.44 138.15 280.14 139.1 279.66 163.27 325.86 163.28 325.86 230.74 345.49"/>
  <path id="bag" class="cls-5" d="M293.82,103.45c-29.28-35.4,51.86-71.93,21-82.72-25.65-6.75-46.41,15.53-56.72,45s-77.86,12.17-64.28-9.45c68.41-92.59-33.43-53.61-32-.49,17.28,66.45-62.55,41.42-65.6,99.27.34,22.12.09,56.31,22.2,60.69,27.51,5.76,51.14-42.66,73.14-9.79C200.73,219,209,226,222.2,226.91c27.83,1,22.1-30,38.35-44.73,9.15-9.55,26-7.1,35.38-16.67,14.15-11.13,21.94-36,14.15-43.9C305.05,116.06,298.51,110.45,293.82,103.45Zm4.9-72.26s8.86,5.83-26.39,39.48C272.35,70.67,277.94,33.51,298.72,31.19ZM199.79,15.45c20.17-4.74-26.14,38.38-26.14,38.38S179.62,20.16,199.79,15.45Z" transform="translate(-3.07 0.03)"/>
  <path id="dark3" class="cls-3" d="M193.91,108.45S181.57,280.72,293,298.66C293,298.65,332,180.63,193.91,108.45Z" transform="translate(-3.07 0.03)"/>
  <polygon id="line_on_dark2" data-name="line on dark2" class="cls-6" points="293.05 308.39 292.15 308.84 244.67 214.87 204.17 200.31 204.51 199.37 244.01 213.57 192.4 111.44 193.3 110.97 233.9 191.31 243.94 156.75 244.9 157.03 234.56 192.62 245.4 214.07 246.05 215.37 262.99 248.91 278.8 203.75 279.74 204.09 263.62 250.13 293.05 308.39"/>
  <path id="dark4" class="cls-2" d="M350.43,123.71V278.92a82.34,82.34,0,0,1-4.66,7.18c-99.63-53.06-32.19-212-32.19-212C329.72,91,341.72,107.67,350.43,123.71Z" transform="translate(-3.07 0.03)"/>
  <path id="bottle" class="cls-7" d="M147.94,287.8c-6.48-13.12-15.4-20.38-36.73-30-40.13-13.47-11.42-44.6-54.47-53.56-3.71-24.47-15-18.23-31.08,1.32-5.17,6,2.84,13.47,6.94,14.81-24,23.48,16.4,68.51,34.16,77.25v.19h.36c15.75,9.79,16,23.05,22.32,37C107.65,363.39,152.58,306.36,147.94,287.8Zm-37.63-20.88c-16.43,35.3-39.06,42.95-71.1-4.72,5.07-1,33.94-7.16,41.72-23.84C84.39,251.19,98.28,262,110.31,266.92Z" transform="translate(-3.07 0.03)"/>
  <path id="_3bottle_middle" data-name=" 3bottle middle" class="cls-8" d="M245.77,310.91,123.85,278.55a25.85,25.85,0,0,1-18.3-31.65,25.55,25.55,0,0,1,1.53-4.21h0A25.71,25.71,0,0,1,141.2,230.1a26,26,0,0,1,5.07,3.09Z" transform="translate(-3.07 0.03)"/>
  <path id="_3bottom_right" data-name=" 3bottom right" class="cls-1" d="M285,326,177,260.62a25.87,25.87,0,0,1-8.69-35.55,25.56,25.56,0,0,1,2.62-3.59h0a25.73,25.73,0,0,1,40.27,1.9Z" transform="translate(-3.07 0.03)"/>
  <path id="light_middle" data-name="light middle" class="cls-9" d="M179.87,251.45s36.69,110.27,123.76,75.66C303.63,327.15,301,239.12,179.87,251.45Z" transform="translate(-3.07 0.03)"/>
  <path id="light_bottom" data-name="light bottom" class="cls-4" d="M175,373.74s107.41,44.37,138.17-44.13C313.16,329.63,244.86,274,175,373.74Z" transform="translate(-3.07 0.03)"/>
  <polygon id="line_on_light" data-name="line on light" class="cls-1" points="305.42 333.48 304.88 334.33 220.16 279.95 199.76 281.71 199.68 280.71 218.78 279.07 176.53 251.94 177.07 251.1 246.72 295.8 234.21 265.57 235.13 265.18 248.18 296.74 305.42 333.48"/>
  <path id="light_top-2" data-name="light top-2" class="cls-6" d="M350.44,392.44c-3.37-3.28-37.62-20.42-55.72-42.76h0C266,310.56,273.22,256,289.2,213.52c.72.48,1.41,1,2.11,1.47h0c16.47,11.47,32.79,25.4,45.31,40.59h0a142.36,142.36,0,0,1,13.82,19.77V392.44Z" transform="translate(-3.07 0.03)"/>
  <path id="_3top_middle" data-name=" 3top middle" class="cls-8" d="M349.18,350.48l-78.31,99.18A25.87,25.87,0,0,1,234.54,454a25,25,0,0,1-3.24-3h0a25.75,25.75,0,0,1,6.92-39.75Z" transform="translate(-3.07 0.03)"/>
  <path id="_4bottom_dark" data-name="4bottom_dark" class="cls-1" d="M350.44,345.65V389L334,440.31A25.87,25.87,0,0,1,301.38,457a25.29,25.29,0,0,1-4.09-1.72,25.72,25.72,0,0,1-7.45-39.63l52.46-60.59Z" transform="translate(-3.07 0.03)"/>
  <path id="_5bottom_dark" data-name="5bottom_dark" class="cls-1" d="M350.44,330.29v19l-8.14,5.8L286,395.15a25.83,25.83,0,0,1-36-6,25.41,25.41,0,0,1-2.28-3.86,25.79,25.79,0,0,1,17.8-36.24Z" transform="translate(-3.07 0.03)"/>
</svg>
