<svg id="light_top" data-name="light top" xmlns="http://www.w3.org/2000/svg" viewBox="0 0 207.14 266.35">
  <defs>
    <style>
      .cls-1 {
        fill: #158978;
      }

      .cls-2 {
        fill: #004c43;
      }

      .cls-3 {
        fill: #005e5e;
      }

      .cls-4 {
        fill: #51ce68;
      }

      .cls-5, .cls-7 {
        fill: #bce0f7;
        isolation: isolate;
      }

      .cls-5 {
        stroke: #bce0f7;
        stroke-miterlimit: 10;
        opacity: 0.54;
      }

      .cls-6 {
        fill: #46e067;
      }

      .cls-7 {
        opacity: 0.6;
      }

      .cls-8 {
        fill: #14a88f;
      }

      .cls-9 {
        fill: #3ec157;
      }
    </style>
  </defs>
  <title>l3</title>
  <path id="light_top2" data-name="light top2" class="cls-9" d="M121.68,241.28S83.4,113.42,1.6,156C1.59,156,6.77,258.69,121.68,241.28Z" transform="translate(0.24 -4.9)"/>
  <path id="dark4" class="cls-1" d="M144.58,147.89a25.83,25.83,0,0,1,30.64,19.87,26.25,26.25,0,0,1,.56,5.66h0A25.56,25.56,0,0,1,150,198.74a25.22,25.22,0,0,1-4.66-.47l-123.59-24Z" transform="translate(0.24 -4.9)"/>
  <path id="dark2" class="cls-8" d="M169.4,115a25.8,25.8,0,0,1,36.72,16.62h0a25.61,25.61,0,0,1-18.59,31.09,25.28,25.28,0,0,1-4.57.72L57.18,172.13Z" transform="translate(0.24 -4.9)"/>
  <path id="dark3" class="cls-1" d="M59.58,177.91H75.15L96.58,165l59-35.45a25.69,25.69,0,1,0-34.2-37L60.83,176.23Z" transform="translate(0.24 -4.9)"/>
  <path id="dark3-2" data-name="dark3" class="cls-1" d="M7.49,138.59H23.06l21.43-12.87,59-35.45a25.69,25.69,0,1,0-34.2-37L8.74,136.91Z" transform="translate(0.24 -4.9)"/>
  <path id="dark5" class="cls-8" d="M38.43,28.68A25.71,25.71,0,0,1,71.72,6.06h0A25.62,25.62,0,0,1,87,42.31L29.27,153.93Z" transform="translate(0.24 -4.9)"/>
  <path class="cls-2" d="M42.63,68,35.82,94.42l-2,7.89-1,4-8.06,31.28L22.53,146l-.45,1.74-.11.45-8.09,31.38H9.73l-4-26-.06-.45-2.46-16L0,116.2V43a25.56,25.56,0,0,1,17.63-7.08c.67,0,1.33.08,2,.08a25.89,25.89,0,0,1,4.54.74A25.69,25.69,0,0,1,42.63,68Z" transform="translate(0.24 -4.9)"/>
  <path id="light_middle" data-name="light middle" class="cls-1" d="M35,152.42c102.3,40.37,145.4-88.25,145.4-88.25C38.06,49.74,35,152.42,35,152.42Z" transform="translate(0.24 -4.9)"/>
  <path class="cls-4" d="M73.43,271.25S30.71,260.16.24,231.08l-.48-.45V136l.48.14c1.05.3,2.11.64,3.2,1A93.22,93.22,0,0,1,22.7,146l2,1.23.74.48c1.41.93,2.83,1.93,4.24,3l1,.78c1.71,1.32,3.42,2.72,5.1,4.24.3.25.6.52.9.8a92.48,92.48,0,0,1,9.87,10.58c.43.54.86,1.08,1.27,1.64a101.89,101.89,0,0,1,8,12.19,131.53,131.53,0,0,1,13.24,36,186.07,186.07,0,0,1,3.64,24.44A254.38,254.38,0,0,1,73.43,271.25Z" transform="translate(0.24 -4.9)"/>
  <polygon id="line_on_light" data-name="line on light" class="cls-9" points="29.51 154.88 30.14 155.85 129.68 92.43 153.65 94.49 153.74 93.31 131.3 91.4 180.94 59.77 180.31 58.79 98.48 110.92 113.17 75.65 112.09 75.21 96.76 112.03 29.51 154.88"/>
  <path class="cls-3" d="M86.77,83.63a173.73,173.73,0,0,1-2.19,18,127,127,0,0,1-8.14,28.12l-.84,1.91a90.91,90.91,0,0,1-11.44,19c-1.19,1.51-2.4,2.94-3.63,4.31s-2.4,2.56-3.63,3.74a79.07,79.07,0,0,1-10.21,8.36q-2.22,1.53-4.48,2.88h0a84.78,84.78,0,0,1-12,5.93,99.3,99.3,0,0,1-24.54,6.2c-1.67.2-3.29.37-4.85.49l-.29,0-.48,0V113.2c.16-.12.32-.25.48-.36,9.94-7.7,21.75-13.4,33.37-17.62.75-.28,1.5-.54,2.25-.8,1.61-.56,3.21-1.1,4.81-1.6a216.58,216.58,0,0,1,23.14-5.89c3-.59,5.76-1.09,8.29-1.49C81.11,84,86.77,83.63,86.77,83.63Z" transform="translate(0.24 -4.9)"/>
  <path class="cls-4" d="M129.46,207.76a218.18,218.18,0,0,1-21.29,6.75,145.13,145.13,0,0,1-38.65,5.14c-28.08-.36-46.76-11-58.86-22.75A81.28,81.28,0,0,1,.77,185.31l-.29-.41L0,184.2V159.54l.05,0,.43-.24q2.88-1.65,5.73-3a79.64,79.64,0,0,1,9-3.69h0q3.72-1.26,7.36-2.11l2.43-.51c1.79-.35,3.55-.62,5.31-.82,1.18-.14,2.35-.25,3.51-.32.79-.06,1.58-.1,2.36-.12a71.9,71.9,0,0,1,13.84.91l1.7.29a82,82,0,0,1,12.8,3.51,95.57,95.57,0,0,1,11.6,5.12c2.21,1.15,4.37,2.38,6.47,3.66l.51.31c.58.36,1.16.72,1.73,1.09,3.08,2,6,4.07,8.85,6.22,1,.78,2,1.57,3,2.38a171.46,171.46,0,0,1,24,24A139,139,0,0,1,129.46,207.76Z" transform="translate(0.24 -4.9)"/>
</svg>
