<?xml version="1.0" encoding="utf-8"?>
<!-- Generator: Adobe Illustrator 22.1.0, SVG Export Plug-In . SVG Version: 6.00 Build 0)  -->
<svg version="1.1" id="Layer_1" xmlns="http://www.w3.org/2000/svg" xmlns:xlink="http://www.w3.org/1999/xlink" x="0px" y="0px"
	 viewBox="0 0 300 100" style="enable-background:new 0 0 300 100;" xml:space="preserve">
<style type="text/css">
	.st0{fill:#FFFFFF;}
</style>
<g>
	<path class="st0" d="M11.1,35.6v-13h29.4v47.6h-8.6V30H19.4v5.7c0,23.1-5.3,34.5-18.5,35v-7.9C7.9,61.8,11.1,54,11.1,35.6z"/>
	<path class="st0" d="M66.8,35.2c10.5,0,18.8,7.4,18.8,17.9c0,10.5-8.4,17.9-18.8,17.9s-18.8-7.4-18.8-17.9
		C48.1,42.6,56.5,35.2,66.8,35.2z M66.9,63.7c5.6,0,10.2-4.3,10.2-10.7c0-6.3-4.6-10.7-10.2-10.7s-10.1,4.4-10.1,10.7
		C56.7,59.4,61.3,63.7,66.9,63.7z"/>
	<path class="st0" d="M92.7,36h22.5v7.2h-13.9v27h-8.5V36z"/>
	<path class="st0" d="M136.7,35.2c10.5,0,18.8,7.4,18.8,17.9c0,10.5-8.4,17.9-18.8,17.9s-18.8-7.4-18.8-17.9
		C117.9,42.6,126.3,35.2,136.7,35.2z M136.7,63.7c5.6,0,10.2-4.3,10.2-10.7c0-6.3-4.6-10.7-10.2-10.7c-5.6,0-10.1,4.4-10.1,10.7
		C126.6,59.4,131.2,63.7,136.7,63.7z"/>
	<path class="st0" d="M169.6,43.2h-11.3V36h31v7.2h-11.3v27h-8.4V43.2z"/>
	<path class="st0" d="M195.2,36h8.1v18.3c0,1.5-0.1,3.6-0.2,4.1h0.1c0.4-0.9,1.7-2.7,2.5-4.1L218.5,36h8.2v34.2h-8.1V51.9
		c0-1.3,0.1-3.2,0.2-4.1h-0.1c-0.4,0.9-1.7,2.7-2.5,4.1l-12.7,18.2h-8.2V36z"/>
	<path class="st0" d="M235.8,36H267v34.2h-8.5v-27h-14.1v27h-8.5V36z"/>
</g>
</svg>
