<svg id="Layer_1" data-name="Layer 1" xmlns="http://www.w3.org/2000/svg" viewBox="0 0 165.32 158.75">
  <defs>
    <style>
      .cls-1 {
        fill: #bce0f7;
      }

      .cls-2 {
        fill: #fff;
      }
    </style>
  </defs>
  <title>arrow1</title>
  <path id="arrow_top" class="cls-1" d="M132.72,64.36a4,4,0,0,1-5.51-1.26L101.1,21.67A24.16,24.16,0,0,0,80.54,10.33h-.13A24.16,24.16,0,0,0,59.84,21.89L39.38,55.14,53.1,53.46a4,4,0,1,1,1,7.94L31.59,64.15l-.28,0a4,4,0,0,1-.49,0A4.07,4.07,0,0,1,29.39,64a3.77,3.77,0,0,1-.57-.28l-.25-.15-.25-.19-.23-.2a5.49,5.49,0,0,1-.4-.43l-.19-.27c-.06-.09-.11-.18-.16-.27a3.79,3.79,0,0,1-.26-.58L27,61.43l0-.07L19.3,40a4,4,0,1,1,7.52-2.72L32.05,51.8,53,17.7a32.3,32.3,0,0,1,54.84-.29L134,58.84A4,4,0,0,1,132.72,64.36Z" transform="translate(-1.28 -2.33)"/>
  <path id="arrow_right" class="cls-1" d="M166.58,79.42a4,4,0,0,1-4,3.64l-.36,0-13.8-1.25,7.45,11.82a32.31,32.31,0,0,1-27.33,49.53H85.9a4,4,0,0,1,0-8h42.66a24.3,24.3,0,0,0,20.56-37.26l-7.88-12.5L136.47,100a4,4,0,0,1-3.8,2.76,4.12,4.12,0,0,1-1.24-.2,4,4,0,0,1-2.56-5l7-21.58.07-.22a2.83,2.83,0,0,1,.11-.31,3.84,3.84,0,0,1,.74-1.15c.08-.08.15-.16.23-.23a5.21,5.21,0,0,1,.66-.5,4.05,4.05,0,0,1,1.32-.5,3.62,3.62,0,0,1,1,0h.06l.26,0h0l22.53,2A4,4,0,0,1,166.58,79.42Z" transform="translate(-1.28 -2.33)"/>
  <path id="arrow_left" class="cls-1" d="M72.36,139.66c0,.12,0,.25-.07.37a3.45,3.45,0,0,1-.12.43,1.88,1.88,0,0,1-.12.3,1.66,1.66,0,0,1-.13.27c0,.08-.09.16-.14.24a2.11,2.11,0,0,1-.21.31l0,.06,0,0L57.22,159.57a4,4,0,1,1-6.25-5l9.11-11.42H33.64A32.3,32.3,0,0,1,6.13,93.93L16.94,76.36a4,4,0,0,1,6.81,4.19L12.94,98.12a24.3,24.3,0,0,0,20.7,37H60.08L51,123.73a4,4,0,1,1,6.25-5L71.5,136.65a.27.27,0,0,1,.07.08,1.43,1.43,0,0,1,.2.3.85.85,0,0,1,.13.22,2.1,2.1,0,0,1,.15.3s0,0,0,0a3.37,3.37,0,0,1,.22.68c0,.13,0,.26.07.39A4.1,4.1,0,0,1,72.36,139.66Z" transform="translate(-1.28 -2.33)"/>
  <path id="num" class="cls-2" d="M91.35,93.9V96H68.25V93.9h6.3l.6-.6V64.44c-.88.64-1.77,1.23-2.64,1.77a28.79,28.79,0,0,1-3.18,1.65l-1.08-2a29.57,29.57,0,0,0,3.66-2q1.74-1.14,3.36-2.43t3.09-2.7q1.47-1.41,2.79-2.85h3.3V93.3l.6.6Z" transform="translate(-1.28 -2.33)"/>
</svg>
