<?xml version="1.0" encoding="utf-8"?>
<!-- Generator: Adobe Illustrator 24.0.2, SVG Export Plug-In . SVG Version: 6.00 Build 0)  -->
<svg version="1.1" id="Layer_1" xmlns="http://www.w3.org/2000/svg" xmlns:xlink="http://www.w3.org/1999/xlink" x="0px" y="0px"
	 viewBox="0 0 165.3 158.8" style="enable-background:new 0 0 165.3 158.8;" xml:space="preserve">
<style type="text/css">
	.st0{fill:#BCE0F7;}
	.st1{fill:#FFFFFF;}
</style>
<path id="arrow_top" class="st0" d="M131.4,62c-1.9,1.2-4.3,0.6-5.5-1.3L99.8,19.3C95.4,12.3,87.6,8,79.3,8h-0.1
	c-8.4,0-16.2,4.4-20.6,11.6L38.1,52.8l13.7-1.7c2.2-0.3,4.2,1.3,4.5,3.5c0.3,2.2-1.3,4.2-3.5,4.5l-22.5,2.8H30c-0.2,0-0.3,0-0.5,0
	c-0.5,0-1,0-1.4-0.2c-0.2-0.1-0.4-0.2-0.6-0.3l-0.3-0.2L27,61l-0.2-0.2c-0.1-0.1-0.3-0.3-0.4-0.4l-0.2-0.3c-0.1-0.1-0.1-0.2-0.2-0.3
	c-0.1-0.2-0.2-0.4-0.3-0.6l-0.1-0.2V59L18,37.7c-0.8-2.1,0.2-4.4,2.3-5.2c2.1-0.8,4.4,0.2,5.2,2.3c0,0.1,0.1,0.1,0.1,0.2l5.2,14.5
	l21-34.1C61.1,0.2,81-4.6,96.2,4.8c4.2,2.6,7.8,6.1,10.4,10.3l26.2,41.4C133.9,58.4,133.3,60.9,131.4,62C131.4,62,131.4,62,131.4,62
	z"/>
<path id="arrow_right" class="st0" d="M165.3,77.1c-0.2,2.1-1.9,3.6-4,3.6h-0.4l-13.8-1.3l7.4,11.8c9.5,15.1,5,35-10.1,44.6
	c-5.2,3.2-11.1,5-17.2,5H84.6c-2.2,0-4-1.8-4-4s1.8-4,4-4h42.7c13.4,0,24.3-10.9,24.3-24.3c0-4.6-1.3-9.1-3.7-13L140,83.1l-4.8,14.6
	c-0.5,1.6-2.1,2.8-3.8,2.8c-0.4,0-0.8-0.1-1.2-0.2c-2.1-0.7-3.2-2.9-2.6-5l7-21.6l0.1-0.2c0-0.1,0.1-0.2,0.1-0.3
	c0.2-0.4,0.4-0.8,0.7-1.2c0.1-0.1,0.1-0.2,0.2-0.2c0.2-0.2,0.4-0.4,0.7-0.5c0.4-0.2,0.9-0.4,1.3-0.5c0.3,0,0.7,0,1,0h0.1h0.3l0,0
	l22.5,2c2.2,0.1,3.9,2,3.7,4.2C165.3,77,165.3,77.1,165.3,77.1z"/>
<path id="arrow_left" class="st0" d="M71.1,137.3c0,0.1,0,0.3-0.1,0.4c0,0.1-0.1,0.3-0.1,0.4c0,0.1-0.1,0.2-0.1,0.3
	c0,0.1-0.1,0.2-0.1,0.3c0,0.1-0.1,0.2-0.1,0.2c-0.1,0.1-0.1,0.2-0.2,0.3v0.1l0,0l-14.3,17.9c-1.4,1.7-3.9,2-5.6,0.6s-2-3.9-0.6-5.6
	l9.1-11.4H32.4c-17.8,0-32.3-14.5-32.3-32.3c0-6,1.7-11.8,4.8-16.9L15.7,74c1.2-1.8,3.7-2.3,5.5-1.1c1.8,1.2,2.3,3.5,1.3,5.3
	L11.7,95.8c-7,11.4-3.4,26.4,8,33.4c3.8,2.3,8.2,3.6,12.7,3.6h26.4l-9.1-11.4c-1.4-1.7-1.1-4.2,0.6-5.6s4.2-1.1,5.6,0.6l0,0
	l14.3,17.9c0,0,0.1,0,0.1,0.1c0.1,0.1,0.1,0.2,0.2,0.3c0.1,0.1,0.1,0.1,0.1,0.2c0.1,0.1,0.1,0.2,0.2,0.3l0,0
	c0.1,0.2,0.2,0.4,0.2,0.7c0,0.1,0,0.3,0.1,0.4C71.1,136.6,71.1,137,71.1,137.3z"/>
<g>
	<path class="st1" d="M91.7,88.7v-2.1h-5.1V59.1h-4.7L59.2,86.9v1.8h18.1v7.9l-0.6,0.6h-3.3v2.1h17.1v-2.1h-3.3l-0.6-0.6v-7.9H91.7z
		 M77.3,86.6H62.6v-0.3l14.5-17.6h0.2V86.6z"/>
</g>
</svg>
